<?xml version="1.0" encoding="UTF-8"?>
<svg width="18px" height="18px" viewBox="0 0 18 18" version="1.1" xmlns="http://www.w3.org/2000/svg" xmlns:xlink="http://www.w3.org/1999/xlink">
    <title>D8E97748-083B-40D2-BD97-5F279E3FC71A</title>
    <g id="iteration-2" stroke="none" stroke-width="1" fill="none" fill-rule="evenodd">
        <g id="HS-landing-page" transform="translate(-918.000000, -3355.000000)" fill="#FFFFFF" fill-rule="nonzero">
            <g id="Group-12" transform="translate(0.000000, 2627.000000)">
                <g id="logo-facebook" transform="translate(918.000000, 728.000000)">
                    <path d="M17.0063839,0 L0.993616071,0 C0.444948937,0.000221728511 0.000221728511,0.444948937 0,0.993616071 L0,17.0063839 C0.000221728511,17.5550511 0.444948937,17.9997783 0.993616071,18 L9,18 L9,10.9285714 L6.8484375,10.9285714 L6.8484375,8.35714286 L9,8.35714286 L9,6.30803571 C9,3.98330357 10.6123661,2.71767857 12.6891964,2.71767857 C13.6828125,2.71767857 14.7515625,2.79241071 14.9998661,2.82535714 L14.9998661,5.25334821 L13.3453125,5.25334821 C12.2154911,5.25334821 12.0001339,5.78772321 12.0001339,6.57522321 L12.0001339,8.35714286 L14.6920982,8.35714286 L14.3405357,10.9285714 L12.0001339,10.9285714 L12.0001339,18 L17.0063839,18 C17.5550511,17.9997783 17.9997783,17.5550511 18,17.0063839 L18,0.993616071 C17.9997783,0.444948937 17.5550511,0.000221728511 17.0063839,0 Z" id="Path"></path>
                </g>
            </g>
        </g>
    </g>
</svg>