<svg width="118px" height="118px" viewBox="0 0 118 118" version="1.1" xmlns="http://www.w3.org/2000/svg" xmlns:xlink="http://www.w3.org/1999/xlink">
    <defs>
        <filter x="-181.2%" y="-181.2%" width="462.5%" height="462.5%" filterUnits="objectBoundingBox" id="filter-1">
            <feOffset dx="0" dy="6" in="SourceAlpha" result="shadowOffsetOuter1"></feOffset>
            <feGaussianBlur stdDeviation="12" in="shadowOffsetOuter1" result="shadowBlurOuter1"></feGaussianBlur>
            <feColorMatrix values="0 0 0 0 0   0 0 0 0 0   0 0 0 0 0  0 0 0 0.18 0" type="matrix" in="shadowBlurOuter1" result="shadowMatrixOuter1"></feColorMatrix>
            <feMerge>
                <feMergeNode in="shadowMatrixOuter1"></feMergeNode>
                <feMergeNode in="SourceGraphic"></feMergeNode>
            </feMerge>
        </filter>
        <rect id="path-2" x="0" y="0" width="32" height="32" rx="16"></rect>
    </defs>
    <g stroke="none" stroke-width="1" fill="none" fill-rule="evenodd">
        <g id="HS-about-us-page" transform="translate(-185.000000, -2014.000000)">
            <g id="Group-6" transform="translate(219.000000, 2047.000000)">
                <g id="Group-2-Copy">
                    <circle id="Oval" fill="#0088DF" opacity="0.209332421" cx="25.5" cy="25.5" r="25.5"></circle>
                    <g id="Send-Button" filter="url(#filter-1)" transform="translate(9.000000, 10.000000)">
                        <mask id="mask-3" fill="white">
                            <use xlink:href="#path-2"></use>
                        </mask>
                        <use id="Base" fill="#0088DF" xlink:href="#path-2"></use>
                    </g>
                </g>
                <g id="handshake" transform="translate(15.000000, 20.000000)" fill="#FFFFFF" fill-rule="nonzero">
                    <path d="M12.3660714,0.000309952737 C11.9698664,0.00309995274 11.5764507,0.0226313813 11.1607143,0.134238524 C10.7449779,0.245845667 10.3292414,0.424417096 9.88839286,0.714595667 C9.34151786,0.393724953 8.81138429,0.128658524 8.30357143,0.0672742385 C7.67299143,-0.0108507615 7.08705357,0.0310020956 6.40625,0.0449528099 C5.59988857,0.0616942385 5.072545,0.474640667 4.21875,0.803881381 C3.36495571,1.13312281 2.265625,1.45120281 0.714285714,1.45120281 L0,1.45120281 L0,8.32620281 L0.401785714,8.52709567 L1.71875,9.1744171 L6.40625,14.3976314 L6.42857143,14.4199528 C6.96428571,14.9500871 7.68694214,15.081225 8.32589286,15.0449528 C8.96484357,15.0086807 9.56473214,14.8217385 10.0446429,14.53156 C11.0993307,13.8953992 13.9732143,11.8976314 13.9732143,11.8976314 L14.0401786,11.8529885 L14.0848214,11.8083457 C14.4252236,11.4707342 14.5954243,11.0577878 14.7098214,10.62531 L17.4553571,9.24138138 L19.5089286,8.5494171 L20,8.3931671 L20,1.45120281 L19.2857143,1.45120281 C17.737165,1.45120281 16.635045,1.11638138 15.78125,0.781559953 C14.9274557,0.446738524 14.4084821,0.0393728099 13.59375,0.0226313813 C13.1584821,0.014260667 12.7622771,-0.00248004726 12.3660714,0.000309952737 Z M12.3883929,1.42888138 C12.7092636,1.42609138 13.0803571,1.4428321 13.5491071,1.45120281 C13.6244421,1.45399281 14.3108257,1.7469621 15.2678571,2.12084567 C16.0770093,2.43892638 17.2014507,2.72073424 18.5714286,2.81280995 L18.5714286,7.36638138 L16.9196429,7.9244171 L16.875,7.9244171 L16.8303571,7.94673852 L14.6651786,9.04048852 C14.5452007,8.71403781 14.3805807,8.41269852 14.1294643,8.14763138 L14.0848214,8.0806671 L11.0491071,4.35298852 L10.6026786,3.79495281 L10.0446429,4.24138138 L8.125,5.80388138 C7.48046857,6.25030995 6.95870571,6.1219621 6.42857143,5.87084567 C6.27511143,5.79830138 6.28348214,5.77597995 6.16071429,5.69227424 L9.41964286,2.99138138 L9.46428571,2.94673852 C10.4324779,1.9869171 11.0267857,1.65488567 11.5401786,1.5181671 C11.796875,1.44841281 12.0675221,1.43167138 12.3883929,1.42888138 Z M7.41071429,1.45120281 C7.68415214,1.44562281 7.91294643,1.44841281 8.125,1.47352424 C8.31194214,1.49584567 8.52399571,1.65488567 8.70535714,1.71905995 C8.63281286,1.78602424 8.57979929,1.8250871 8.50446429,1.89763138 C8.48772357,1.91437281 8.47656286,1.92553352 8.45982143,1.94227424 L4.55357143,5.17888138 L3.95089286,5.66995281 L4.48660714,6.22798852 C4.48660714,6.22798852 5.00279,6.78602424 5.80357143,7.16548852 C6.60435286,7.54495281 7.84040214,7.75979638 8.95089286,6.9869171 L8.99553571,6.94227424 L10.3794643,5.80388138 L13.0133929,9.04048852 L13.0357143,9.08513138 L13.0580357,9.10745281 C13.5295757,9.57341281 13.518415,10.30723 13.0580357,10.78156 C13.0524557,10.7871407 13.0636164,10.7983014 13.0580357,10.8038814 C13.0524557,10.8066714 12.9575893,10.862475 12.9464286,10.8708457 L12.0089286,9.59852424 L10.8482143,10.4467385 L11.7633929,11.6744171 C11.3922993,11.9255335 11.2248886,12.0566714 10.8258929,12.3217385 L9.86607143,11.0270957 L8.70535714,11.87531 L9.62053571,13.1029885 C9.53962071,13.1532121 9.37221,13.2648192 9.30803571,13.3038814 C9.08203143,13.4406 8.64676357,13.59406 8.25892857,13.6163814 C7.893415,13.6359128 7.61439714,13.5522071 7.47767857,13.43781 L7.45535714,13.4154885 L2.67857143,8.12530995 L2.58928571,8.01370281 L1.42857143,7.43334567 L1.42857143,2.81280995 C2.79296857,2.72352424 3.92578143,2.4528771 4.73214286,2.1431671 C5.68638429,1.77765352 6.36718786,1.47631424 6.45089286,1.47352424 C6.81640643,1.46515352 7.13727714,1.45678352 7.41071429,1.45120281 Z" id="Shape"></path>
                </g>
            </g>
        </g>
    </g>
</svg>