<?xml version="1.0" encoding="UTF-8"?>
<svg width="118px" height="118px" viewBox="0 0 118 118" version="1.1" xmlns="http://www.w3.org/2000/svg" xmlns:xlink="http://www.w3.org/1999/xlink">
    <title>C0D21E88-1783-45B3-B345-C4513657D29F</title>
    <defs>
        <filter x="-181.2%" y="-181.2%" width="462.5%" height="462.5%" filterUnits="objectBoundingBox" id="filter-1">
            <feOffset dx="0" dy="6" in="SourceAlpha" result="shadowOffsetOuter1"></feOffset>
            <feGaussianBlur stdDeviation="12" in="shadowOffsetOuter1" result="shadowBlurOuter1"></feGaussianBlur>
            <feColorMatrix values="0 0 0 0 0   0 0 0 0 0   0 0 0 0 0  0 0 0 0.18 0" type="matrix" in="shadowBlurOuter1" result="shadowMatrixOuter1"></feColorMatrix>
            <feMerge>
                <feMergeNode in="shadowMatrixOuter1"></feMergeNode>
                <feMergeNode in="SourceGraphic"></feMergeNode>
            </feMerge>
        </filter>
        <rect id="path-2" x="0" y="0" width="32" height="32" rx="16"></rect>
    </defs>
    <g id="iteration-2" stroke="none" stroke-width="1" fill="none" fill-rule="evenodd">
        <g id="HS-about-us-page" transform="translate(-185.000000, -2329.000000)">
            <g id="Group-8" transform="translate(219.000000, 2362.000000)">
                <g id="Group-2-Copy-4">
                    <circle id="Oval" fill="#CC3737" opacity="0.20077442" cx="25.5" cy="25.5" r="25.5"></circle>
                    <g id="Send-Button" filter="url(#filter-1)" transform="translate(9.000000, 10.000000)">
                        <mask id="mask-3" fill="white">
                            <use xlink:href="#path-2"></use>
                        </mask>
                        <use id="Base" fill="#CC3737" xlink:href="#path-2"></use>
                    </g>
                </g>
                <g id="running-solid" transform="translate(16.000000, 16.000000)" fill="#FFFFFF" fill-rule="nonzero">
                    <path d="M12.3525611,0 C11.1619754,0 10.1818182,0.985158056 10.1818182,2.18181818 C10.1818182,3.37847902 11.1619754,4.36363636 12.3525611,4.36363636 C13.5459162,4.36363636 14.5454545,3.37847902 14.5454545,2.18181818 C14.5454545,0.985158056 13.5459162,0 12.3525611,0 Z M12.3530962,1.45454545 C12.7588936,1.45454545 13.0909091,1.77272744 13.0909091,2.18181818 C13.0909091,2.59090892 12.7588936,2.90909091 12.3530962,2.90909091 C11.9499343,2.90909091 11.6363636,2.59358323 11.6363636,2.18181818 C11.6363636,1.77272744 11.9499343,1.45454545 12.3530962,1.45454545 Z M6.57259159,2.92144757 C6.19708257,2.97075178 5.81852084,3.15810677 5.5468114,3.47365236 L2.90909091,6.55022188 L4.08141113,7.70722239 L6.69470828,4.63065286 C6.72218434,4.60107067 6.75881934,4.58134865 6.79240163,4.6043574 L8.03799186,5.49840324 L6.20624152,8.23313171 C5.63229308,9.10088209 5.72693371,10.2940391 6.42605156,11.0467466 L9.18588874,14.0181342 L6.91451832,18.9090909 L8.67299864,18.9090909 L10.6024423,14.7807027 C10.9046813,14.1331771 10.7856174,13.3475998 10.3093623,12.8348383 L7.5495251,9.8634506 C7.39077341,9.69253007 7.36940279,9.40327994 7.50067843,9.20606395 L9.33242877,6.44504002 L9.96743555,6.89206294 L11.2130258,8.91681382 C11.5030531,9.38355877 11.9854136,9.65308687 12.5074627,9.65308687 L16,9.65308687 L16,7.97017705 L12.5074627,7.97017705 L11.1886024,5.81394883 L11.0909091,5.6824715 L10.9687924,5.57728964 L7.67164179,3.2106977 C7.33887401,2.97075178 6.9481006,2.87214336 6.57259159,2.92144757 Z M4.72270825,11.6363636 L3.57854698,12.8681409 L0,12.8681409 L0,14.5454545 L3.57854698,14.5454545 C3.98934976,14.5454545 4.38189426,14.3652742 4.67402054,14.047502 L5.81818182,12.8157248 L4.72270825,11.6363636 Z" id="Shape"></path>
                </g>
            </g>
        </g>
    </g>
</svg>