<?xml version="1.0" encoding="UTF-8"?>
<svg width="18px" height="18px" viewBox="0 0 18 18" version="1.1" xmlns="http://www.w3.org/2000/svg" xmlns:xlink="http://www.w3.org/1999/xlink">
    <title>A2AC1BA1-D3FB-4F6C-B09B-CC61E72062D6</title>
    <g id="iteration-2" stroke="none" stroke-width="1" fill="none" fill-rule="evenodd">
        <g id="HS-landing-page" transform="translate(-1098.000000, -3355.000000)" fill="#FFFFFF" fill-rule="nonzero">
            <g id="Group-12" transform="translate(0.000000, 2627.000000)">
                <g id="Group-6" transform="translate(918.000000, 728.000000)">
                    <g id="logo-instagram" transform="translate(180.000000, 0.000000)">
                        <path d="M12.7498661,1.49986607 C14.8185175,1.50604383 16.4939562,3.1814825 16.5001339,5.25013393 L16.5001339,12.7498661 C16.4939562,14.8185175 14.8185175,16.4939562 12.7498661,16.5001339 L5.25013393,16.5001339 C3.1814825,16.4939562 1.50604383,14.8185175 1.49986607,12.7498661 L1.49986607,5.25013393 C1.50604383,3.1814825 3.1814825,1.50604383 5.25013393,1.49986607 L12.7498661,1.49986607 M12.7498661,0 L5.25013393,0 C2.3625,0 0,2.3625 0,5.25013393 L0,12.7498661 C0,15.6375 2.3625,18 5.25013393,18 L12.7498661,18 C15.6375,18 18,15.6375 18,12.7498661 L18,5.25013393 C18,2.3625 15.6375,0 12.7498661,0 Z" id="Shape"></path>
                        <path d="M14,5 C13.4477147,5 13,4.55228296 13,4 C13,3.44771473 13.4477147,3 14,3 C14.552283,3 15,3.44771473 15,4 C15.0005682,4.26538952 14.8953947,4.52007476 14.7077347,4.70773474 C14.5200748,4.89539472 14.2653895,5.00056822 14,5 L14,5 Z" id="Path"></path>
                        <path d="M9.5,6.49986607 C10.7134409,6.49986607 11.8073986,7.23082524 12.2717623,8.35189845 C12.7361261,9.47297167 12.4794473,10.7633828 11.621415,11.621415 C10.7633828,12.4794473 9.47297167,12.7361261 8.35189845,12.2717623 C7.23082524,11.8073986 6.49986607,10.7134409 6.49986607,9.5 C6.50163764,7.84380615 7.84380615,6.50163764 9.5,6.49986607 M9.5,5 C7.01471863,5 5,7.01471863 5,9.5 C5,11.9852814 7.01471863,14 9.5,14 C11.9852814,14 14,11.9852814 14,9.5 C14,8.3065258 13.5258942,7.16193319 12.6819805,6.31801948 C11.8380668,5.47410578 10.6934742,5 9.5,5 Z" id="Shape"></path>
                    </g>
                </g>
            </g>
        </g>
    </g>
</svg>