<?xml version="1.0" encoding="UTF-8"?>
<svg width="19px" height="18px" viewBox="0 0 19 18" version="1.1" xmlns="http://www.w3.org/2000/svg" xmlns:xlink="http://www.w3.org/1999/xlink">
    <title>D71D2C84-BACE-48E8-B7FC-68736C523BE0</title>
    <g id="iteration-2" stroke="none" stroke-width="1" fill="none" fill-rule="evenodd">
        <g id="HS-landing-page" transform="translate(-1006.000000, -3355.000000)" fill="#FFFFFF" fill-rule="nonzero">
            <g id="Group-12" transform="translate(0.000000, 2627.000000)">
                <g id="Group-4" transform="translate(918.000000, 728.000000)">
                    <path d="M104.624867,0 L89.6025471,0 C88.7817014,0 88.0645161,0.590625 88.0645161,1.40183036 L88.0645161,16.4575446 C88.0645161,17.2731696 88.7817014,18 89.6025471,18 L104.620447,18 C105.445713,18 106.064489,17.2683482 106.064489,16.4575446 L106.064489,1.40183036 C106.069282,0.590625 105.445713,0 104.624867,0 Z M93.6440972,15.0038839 L91.0654444,15.0038839 L91.0654444,6.98625 L93.6440972,6.98625 L93.6440972,15.0038839 Z M92.443967,5.76723214 L92.4254849,5.76723214 C91.6002196,5.76723214 91.0658462,5.15290179 91.0658462,4.38388393 C91.0658462,3.60080357 91.614282,3.0009375 92.4580294,3.0009375 C93.3017768,3.0009375 93.8180699,3.59638393 93.836552,4.38388393 C93.8361502,5.15290179 93.3017768,5.76723214 92.443967,5.76723214 Z M103.068354,15.0038839 L100.489701,15.0038839 L100.489701,10.62 C100.489701,9.56973214 100.114435,8.85214286 99.181491,8.85214286 C98.4687253,8.85214286 98.0468516,9.33428571 97.8592182,9.80397321 C97.7889059,9.97272321 97.7700221,10.2025446 97.7700221,10.4371875 L97.7700221,15.0038839 L95.1913693,15.0038839 L95.1913693,6.98625 L97.7700221,6.98625 L97.7700221,8.10200893 C98.1452888,7.56763393 98.7314923,6.79861607 100.095551,6.79861607 C101.788269,6.79861607 103.068756,7.914375 103.068756,10.3198661 L103.068354,15.0038839 Z" id="Shape"></path>
                </g>
            </g>
        </g>
    </g>
</svg>