<?xml version="1.0" encoding="UTF-8"?>
<svg width="36px" height="36px" viewBox="0 0 36 36" version="1.1" xmlns="http://www.w3.org/2000/svg" xmlns:xlink="http://www.w3.org/1999/xlink">
    <title>01E08E1C-3DF2-4CBA-AA80-0E578E8EACBE</title>
    <g id="iteration-2" stroke="none" stroke-width="1" fill="none" fill-rule="evenodd">
        <g id="Contact-us-page" transform="translate(-407.000000, -513.000000)">
            <g id="Group-9" transform="translate(407.000000, 513.000000)">
                <circle id="Oval-Copy-3" fill="#008439" opacity="0.121542794" cx="18" cy="18" r="18"></circle>
                <g id="sms" transform="translate(6.000000, 6.000000)">
                    <path d="M22,12.9799957 L22,15.5 C22,19 20,20.5 17,20.5 L7,20.5 C4,20.5 2,19 2,15.5 L2,8.5 C2,5 4,3.5 7,3.5 L17,3.5 C20,3.5 22,5 22,8.5" id="Vector" stroke="#008439" stroke-width="1.5" stroke-linecap="round" stroke-linejoin="round" stroke-dasharray="0,0" fill-rule="nonzero"></path>
                    <path d="M17,9 L13.8699951,11.5 C12.8399951,12.32 11.1499951,12.32 10.1199951,11.5 L7,9" id="Vector" stroke="#008439" stroke-width="1.5" stroke-linecap="round" stroke-linejoin="round" stroke-dasharray="0,0" fill-rule="nonzero"></path>
                    <path d="M24,0 L24,24 L0,24 L0,0 L24,0 Z" id="Vector" opacity="0"></path>
                </g>
            </g>
        </g>
    </g>
</svg>