<?xml version="1.0" encoding="UTF-8"?>
<svg width="36px" height="36px" viewBox="0 0 36 36" version="1.1" xmlns="http://www.w3.org/2000/svg" xmlns:xlink="http://www.w3.org/1999/xlink">
    <title>64CB65B9-D37C-4A1F-86CB-4A0AB8CF21BB</title>
    <g id="iteration-2" stroke="none" stroke-width="1" fill="none" fill-rule="evenodd">
        <g id="Contact-us-page" transform="translate(-178.000000, -513.000000)">
            <g id="Group-8" transform="translate(178.000000, 513.000000)">
                <circle id="Oval" fill="#008439" opacity="0.121542794" cx="18" cy="18" r="18"></circle>
                <g id="phone" transform="translate(10.000000, 10.000000)" stroke="#008439" stroke-linecap="round" stroke-linejoin="round" stroke-width="2">
                    <path d="M15.9994976,11.9790694 L15.9994976,14.3877135 C16.0013365,14.8398523 15.8120935,15.2718131 15.4782605,15.5774753 C15.1444274,15.8831375 14.6969432,16.0341729 14.2457422,15.9934763 C11.7702391,15.7250255 9.39234409,14.8807988 7.30312329,13.5286305 C5.35937351,12.2959376 3.71141301,10.6512415 2.47627352,8.71134208 C1.11669319,6.61678829 0.270598668,4.23206241 0.00653539185,1.75036038 C-0.0341121453,1.30144718 0.11616281,0.856153172 0.420651572,0.523253361 C0.725140334,0.19035355 1.15580369,0.000503414007 1.60744056,0 L4.02086545,0 C4.82844894,-0.00785365592 5.51678732,0.582944724 5.62981537,1.38103494 C5.73168041,2.15185443 5.92059241,2.90869895 6.19294784,3.63713166 C6.41396527,4.22393763 6.27260299,4.88545668 5.83093411,5.33121141 L4.80925091,6.35087078 C5.95446564,8.36092115 7.62206074,10.0252129 9.63610067,11.1681592 L10.6577839,10.1484998 C11.1044233,9.70770579 11.7672554,9.56662353 12.355226,9.78720315 C13.0851045,10.0590191 13.8434513,10.2475569 14.6158007,10.3492201 C15.4247507,10.4631171 16.0197623,11.1639782 15.9994976,11.9790694 Z" id="Path"></path>
                </g>
            </g>
        </g>
    </g>
</svg>