<?xml version="1.0" encoding="UTF-8"?>
<svg width="23px" height="18px" viewBox="0 0 23 18" version="1.1" xmlns="http://www.w3.org/2000/svg" xmlns:xlink="http://www.w3.org/1999/xlink">
    <title>226B4027-A405-4006-8D5D-204C0B151922</title>
    <g id="iteration-2" stroke="none" stroke-width="1" fill="none" fill-rule="evenodd">
        <g id="HS-landing-page" transform="translate(-960.000000, -3355.000000)" fill="#FFFFFF" fill-rule="nonzero">
            <g id="Group-12" transform="translate(0.000000, 2627.000000)">
                <g id="Group-6" transform="translate(918.000000, 728.000000)">
                    <g id="logo-twitter" transform="translate(42.000000, 0.000000)">
                        <path d="M22.0645161,2.13281377 C21.2368468,2.49954034 20.3611294,2.74114737 19.4650403,2.84999902 C20.4067669,2.28767851 21.1149691,1.39433169 21.4568226,0.337506893 C20.5664713,0.868407548 19.594006,1.24091246 18.5810806,1.43906594 C17.7190931,0.517852964 16.5241889,-0.00234537149 15.2755403,0 C12.7739758,0 10.7495565,2.03437658 10.7495565,4.54218123 C10.7477828,4.89100741 10.7869812,5.23879504 10.8663145,5.57811548 C7.23918674,5.4047215 3.85158252,3.6808979 1.5348629,0.829692852 C1.1329094,1.52068452 0.920334927,2.30908385 0.919354839,3.1124982 C0.919354839,4.68749327 1.72516935,6.07967641 2.94193548,6.89529886 C2.22103618,6.8778524 1.51490866,6.68328451 0.8835,6.32811313 L0.8835,6.38436296 C0.8835,8.58748106 2.44640323,10.4202878 4.51495161,10.837474 C4.12596494,10.9432153 3.72511923,10.9967916 3.32254839,10.9968485 C3.03689508,10.9973565 2.75189085,10.9690944 2.47168548,10.9124738 C3.04674194,12.7171556 4.72042742,14.0296515 6.70301613,14.0671514 C5.09202078,15.3332057 3.11413914,16.0174918 1.08024194,16.0124578 C0.719219559,16.0119103 0.358532564,15.9899985 0,15.946833 C2.06909064,17.294118 4.47424479,18.0067663 6.92917742,18 C15.2658871,18 19.820371,11.0765358 19.820371,5.07186707 C19.820371,4.87499268 19.8153145,4.6781183 19.806121,4.4859314 C20.6901218,3.84471113 21.4548935,3.04786302 22.0645161,2.13281377 Z" id="Path"></path>
                    </g>
                </g>
            </g>
        </g>
    </g>
</svg>