<?xml version="1.0" encoding="UTF-8"?>
<svg width="24px" height="18px" viewBox="0 0 24 18" version="1.1" xmlns="http://www.w3.org/2000/svg" xmlns:xlink="http://www.w3.org/1999/xlink">
    <title>8F28FD78-0588-4C6C-A15E-780D86FC4EF1</title>
    <g id="iteration-2" stroke="none" stroke-width="1" fill="none" fill-rule="evenodd">
        <g id="HS-landing-page" transform="translate(-1048.000000, -3355.000000)" fill="#FFFFFF" fill-rule="nonzero">
            <g id="Group-12" transform="translate(0.000000, 2627.000000)">
                <g id="Group-6" transform="translate(918.000000, 728.000000)">
                    <g id="logo-youtube" transform="translate(130.064516, 0.000000)">
                        <path d="M23.653488,3.97442304 C23.653488,1.86510547 22.1142439,0.168276669 20.2122777,0.168276669 C17.6360203,0.0468737238 15.0086098,0 12.3235357,0 L11.4864846,0 C8.80792092,0 6.1758601,0.0468737238 3.5996027,0.168745406 C1.70228678,0.168745406 0.163042732,1.87494895 0.163042732,3.98426653 C0.0467856288,5.65250236 -0.00250738293,7.32120693 0.000282787548,8.9899115 C-0.00436749658,10.6586161 0.0483357235,12.3288831 0.158392448,14.0007126 C0.158392448,16.1100301 1.69763649,17.8209211 3.59495241,17.8209211 C6.30141777,17.9474801 9.0776374,18.0037286 11.9003599,17.9990412 C14.7277326,18.008416 17.4962018,17.9490426 20.2057673,17.8209211 C22.1077335,17.8209211 23.6469776,16.1100301 23.6469776,14.0007126 C23.7585844,12.3273206 23.8097375,10.6586161 23.8050872,8.98522412 C23.8156279,7.31651955 23.7650948,5.64625253 23.653488,3.97442304 Z M9.62637092,13.5882238 L9.62637092,4.37753707 L16.3692829,8.98053675 L9.62637092,13.5882238 Z" id="Shape"></path>
                    </g>
                </g>
            </g>
        </g>
    </g>
</svg>